<svg xmlns="http://www.w3.org/2000/svg" width="256" height="256" viewBox="0 0 100 100"><rect width="100" height="100" rx="20" fill="#fd6246"></rect><path d="M17.84 74.52L17.84 74.52Q14.80 74.52 13.00 72.72Q11.20 70.92 11.20 67.88L11.20 67.88L11.20 25.72Q12.08 25.56 13.72 25.32Q15.36 25.08 16.96 25.08L16.96 25.08Q20.56 25.08 22.16 26.28Q23.76 27.48 23.76 31L23.76 31L23.76 64.36L42.96 64.36Q43.44 65.16 43.88 66.44Q44.32 67.72 44.32 69.24L44.32 69.24Q44.32 71.88 43.16 73.20Q42.00 74.52 40.00 74.52L40.00 74.52L17.84 74.52ZM84.32 35.96L74.56 35.96L74.56 74.28Q73.68 74.52 72.08 74.72Q70.48 74.92 68.72 74.92L68.72 74.92Q64.96 74.92 63.44 73.64Q61.92 72.36 61.92 69L61.92 69L61.92 35.96L49.36 35.96Q48.88 35.16 48.44 33.88Q48 32.60 48 31.08L48 31.08Q48 28.36 49.20 27.12Q50.40 25.88 52.48 25.88L52.48 25.88L87.44 25.88Q88 26.68 88.40 27.96Q88.80 29.24 88.80 30.76L88.80 30.76Q88.80 33.40 87.60 34.68Q86.40 35.96 84.32 35.96L84.32 35.96Z" fill="#fff"></path></svg>